<svg width="170" height="137" viewBox="0 0 170 137" fill="none" xmlns="http://www.w3.org/2000/svg">
<path fill-rule="evenodd" clip-rule="evenodd" d="M33.7282 3.70472e-06H136.272C140 -8.19203e-05 143.217 -0.000168329 145.88 0.182812C148.684 0.375554 151.488 0.7994 154.259 1.95534C160.506 4.56245 165.471 9.5632 168.059 15.8573C169.206 18.6481 169.627 21.473 169.819 24.2971C170 26.9794 170 30.2201 170 33.9761V103.024C170 106.78 170 110.02 169.819 112.703C169.627 115.527 169.206 118.352 168.059 121.143C165.471 127.437 160.506 132.438 154.259 135.044C151.488 136.2 148.684 136.624 145.88 136.818C143.217 137 140 137 136.272 137H33.7281C29.9996 137 26.7825 137 24.1198 136.818C21.3162 136.624 18.512 136.2 15.7416 135.044C9.4934 132.438 4.52914 127.437 1.94106 121.143C0.793563 118.352 0.372813 115.527 0.181478 112.703C-0.0001671 110.02 -8.13223e-05 106.78 3.67768e-06 103.024V33.9762C-8.13223e-05 30.2202 -0.0001671 26.9794 0.181478 24.2971C0.372813 21.473 0.793563 18.6481 1.94106 15.8573C4.52914 9.5632 9.4934 4.56245 15.7416 1.95534C18.512 0.7994 21.3162 0.375554 24.1198 0.182812C26.7825 -0.000168329 29.9997 -8.19203e-05 33.7282 3.70472e-06ZM19.6983 19.5034C22.7897 15.9446 28.1597 15.5839 31.6926 18.6979L79.4028 60.7509C82.6073 63.5757 87.3928 63.5757 90.5973 60.7509L138.308 18.6979C141.84 15.5839 147.211 15.9446 150.301 19.5034C153.393 23.0623 153.035 28.4718 149.502 31.5858L101.792 73.6392C92.1774 82.1135 77.8226 82.1135 68.2082 73.6392L20.498 31.5858C16.9651 28.4718 16.607 23.0623 19.6983 19.5034Z" fill="#FFEDD3"/>
</svg>
