<svg width="50" height="50" viewBox="0 0 50 50" fill="none" xmlns="http://www.w3.org/2000/svg">
<path fill-rule="evenodd" clip-rule="evenodd" d="M25 0C11.1929 0 0 11.1929 0 25C0 38.8071 11.1929 50 25 50C38.8071 50 50 38.8071 50 25C50 11.1929 38.8071 0 25 0ZM23 14C23 12.8954 23.8954 12 25 12C26.1046 12 27 12.8954 27 14V23H36C37.1046 23 38 23.8954 38 25C38 26.1046 37.1046 27 36 27H27V36C27 37.1046 26.1046 38 25 38C23.8954 38 23 37.1046 23 36V27H14C12.8954 27 12 26.1046 12 25C12 23.8954 12.8954 23 14 23H23V14Z" fill="white"/>
</svg>
