<svg width="44" height="44" viewBox="0 0 44 44" fill="none" xmlns="http://www.w3.org/2000/svg">
<rect y="4" width="4" height="36" fill="#883204"/>
<rect x="40" y="4" width="4" height="36" fill="#883204"/>
<rect x="4" y="44" width="4" height="36" transform="rotate(-90 4 44)" fill="#883204"/>
<rect x="4" y="4" width="4" height="36" transform="rotate(-90 4 4)" fill="#883204"/>
<rect x="4" y="4" width="36" height="36" fill="#F8C680"/>
<rect x="8" y="25" width="28" height="15" fill="#E6AC75"/>
<rect x="4" y="28" width="4" height="7" fill="#E6AC75"/>
<rect x="8" y="4" width="28" height="4" fill="#FFEFB7"/>
<rect x="4" y="8" width="4" height="8" fill="#FFEFB7"/>
<rect x="36" y="8" width="4" height="24" fill="#FFEFB7"/>
<rect x="10" y="25" width="4" height="23" transform="rotate(-90 10 25)" fill="#3A190E"/>
<rect x="25" y="21" width="4" height="4" transform="rotate(-90 25 21)" fill="#3A190E"/>
<rect x="21" y="17" width="4" height="4" transform="rotate(-90 21 17)" fill="#3A190E"/>
<rect x="21" y="33" width="4" height="4" transform="rotate(-90 21 33)" fill="#3A190E"/>
<rect x="21" y="21" width="4" height="4" transform="rotate(-90 21 21)" fill="#C48E5A"/>
<rect x="10" y="29" width="4" height="15" transform="rotate(-90 10 29)" fill="#C48E5A"/>
<rect x="29" y="29" width="4" height="4" transform="rotate(-90 29 29)" fill="#C48E5A"/>
<rect x="25" y="33" width="4" height="4" transform="rotate(-90 25 33)" fill="#C48E5A"/>
<rect x="21" y="37" width="4" height="4" transform="rotate(-90 21 37)" fill="#C48E5A"/>
<rect x="25" y="29" width="4" height="4" transform="rotate(-90 25 29)" fill="#3A190E"/>
</svg>
