<svg width="192" height="192" viewBox="0 0 192 192" fill="none" xmlns="http://www.w3.org/2000/svg">
<path fill-rule="evenodd" clip-rule="evenodd" d="M82.7093 14.4579C79.575 24.6615 73.1369 46.9819 69.5394 68.9713C78.8762 70.4786 87.9966 71.4418 96 71.4418C104.003 71.4418 113.124 70.4786 122.461 68.9713C118.863 46.9819 112.425 24.6615 109.291 14.4579C104.968 13.7591 100.529 13.3954 96 13.3954C91.4714 13.3954 87.0323 13.7591 82.7093 14.4579ZM124.448 18.4229C127.889 30.336 132.658 48.4547 135.636 66.5376C148.491 63.8893 160.62 60.657 169.429 58.1213C159.988 39.8594 143.933 25.5712 124.448 18.4229ZM174.617 70.565C165.309 73.2743 151.828 76.9133 137.467 79.8353C138.065 85.3879 138.418 90.8442 138.418 96C138.418 103.523 137.666 111.711 136.486 119.943C153.677 116.359 169.445 111.778 177.542 109.291C178.241 104.968 178.604 100.529 178.604 96C178.604 87.1168 177.205 78.5708 174.617 70.565ZM173.577 124.448C163.555 127.342 149.154 131.174 134.088 134.088C131.174 149.154 127.342 163.555 124.448 173.577C147.181 165.238 165.238 147.181 173.577 124.448ZM109.292 177.542C111.778 169.445 116.359 153.677 119.943 136.486C111.711 137.666 103.523 138.418 96 138.418C88.477 138.418 80.2893 137.666 72.0574 136.486C75.6413 153.677 80.2219 169.445 82.7093 177.542C87.0323 178.241 91.4714 178.604 96 178.604C100.529 178.604 104.968 178.241 109.292 177.542ZM67.5523 173.577C64.6577 163.555 60.8265 149.154 57.9122 134.088C42.8458 131.174 28.4446 127.342 18.4227 124.448C26.7624 147.181 44.8184 165.238 67.5523 173.577ZM14.4579 109.291C22.555 111.778 38.3233 116.359 55.5134 119.943C54.3343 111.711 53.5814 103.523 53.5814 96C53.5814 90.8442 53.9348 85.3879 54.5328 79.8353C40.1723 76.9133 26.6905 73.2743 17.3834 70.565C14.7954 78.5708 13.3954 87.1168 13.3954 96C13.3954 100.529 13.7591 104.968 14.4579 109.291ZM22.571 58.1213C31.3797 60.657 43.5085 63.8893 56.3645 66.5376C59.3422 48.4546 64.1112 30.336 67.5521 18.4229C48.0667 25.5712 32.0119 39.8594 22.571 58.1213ZM67.7482 82.2511C67.2544 87.0775 66.9768 91.706 66.9768 96C66.9768 104.02 67.9444 113.169 69.4601 122.54C78.8308 124.056 87.9795 125.024 96 125.024C104.02 125.024 113.169 124.056 122.54 122.54C124.056 113.169 125.024 104.02 125.024 96C125.024 91.706 124.745 87.0775 124.252 82.2511C114.582 83.7999 104.83 84.8376 96 84.8376C87.1697 84.8376 77.4175 83.7999 67.7482 82.2511ZM76.1406 2.05801C82.554 0.708489 89.1981 0 96 0C102.802 0 109.446 0.708488 115.86 2.05802C147.292 8.67217 173.04 30.6429 184.917 59.7482C189.486 70.9424 192 83.1855 192 96C192 102.802 191.292 109.446 189.942 115.86C182.138 152.948 152.948 182.138 115.86 189.942C109.446 191.292 102.802 192 96 192C89.1981 192 82.554 191.292 76.1406 189.942C39.0523 182.138 9.86214 152.948 2.05801 115.86C0.708489 109.446 0 102.802 0 96C0 83.1761 2.5181 70.9233 7.09316 59.7219C18.9755 30.6298 44.7169 8.67021 76.1406 2.05801Z" fill="#FFEDD3"/>
</svg>
