<svg width="205" height="164" viewBox="0 0 205 164" fill="none" xmlns="http://www.w3.org/2000/svg">
<path fill-rule="evenodd" clip-rule="evenodd" d="M64.4725 164C141.829 164 184.141 100.896 184.141 46.1785C184.141 44.3822 184.141 42.5994 184.018 40.8233C192.249 34.97 199.352 27.7026 205 19.3871C197.333 22.7375 189.184 24.9348 180.851 25.9035C189.625 20.7265 196.195 12.5931 199.342 2.99586C191.08 7.81967 182.05 11.2241 172.63 13.0508C156.702 -3.62073 130.062 -4.42847 113.119 11.254C102.203 21.3659 97.5595 36.4425 100.952 50.8231C67.1375 49.148 35.629 33.4253 14.268 7.56037C3.10575 26.4822 8.815 50.6796 27.2958 62.83C20.6025 62.6382 14.0528 60.864 8.2 57.6549V58.1804C8.21025 77.8896 22.3245 94.8601 41.943 98.7655C35.752 100.431 29.2535 100.672 22.96 99.4712C28.4642 116.345 44.2595 127.902 62.2482 128.235C47.355 139.759 28.9563 146.017 10.0143 145.997C6.67275 145.987 3.33125 145.795 0 145.402C19.2392 157.552 41.615 164 64.4725 163.97" fill="#FFEDD3"/>
</svg>
